<svg width="16" height="15" viewBox="0 0 16 15" fill="none" xmlns="http://www.w3.org/2000/svg">
<path d="M6.63751 0.690721C6.93686 -0.23059 8.24027 -0.230587 8.53962 0.690723L9.64546 4.09415C9.77934 4.50618 10.1633 4.78514 10.5965 4.78514H14.1751C15.1438 4.78514 15.5466 6.02475 14.7629 6.59415L11.8677 8.69759C11.5173 8.95224 11.3706 9.4036 11.5045 9.81562L12.6103 13.2191C12.9097 14.1404 11.8552 14.9065 11.0715 14.3371L8.17635 12.2337C7.82586 11.979 7.35126 11.979 7.00078 12.2337L4.10564 14.3371C3.32193 14.9065 2.26745 14.1404 2.5668 13.2191L3.67265 9.81562C3.80652 9.4036 3.65986 8.95223 3.30937 8.69759L0.41424 6.59415C-0.369474 6.02475 0.0333045 4.78514 1.00203 4.78514H4.58061C5.01383 4.78514 5.39779 4.50618 5.53166 4.09415L6.63751 0.690721Z" fill="#202020"/>
</svg>
